<svg width="2500" height="2500" xmlns="http://www.w3.org/2000/svg" preserveAspectRatio="xMidYMid meet">

 <g>
  <title>background</title>
  <rect fill="none" id="canvas_background" height="2502" width="2502" y="-1" x="-1"/>
 </g>
 <g>
  <title>Layer 1</title>
  <path stroke="null" id="svg_1" fill-rule="evenodd" fill="#E535AB" d="m1463.46429,287.09151l513.73535,296.62297a224.26086,224.26086 0 0 1 50.53448,-39.98981c106.54106,-61.25286 242.44042,-24.88506 304.32735,81.66469c61.25286,106.54975 24.88506,242.44042 -81.66469,304.32735a223.20987,223.20987 0 0 1 -59.33328,23.62561l0,593.46308a223.22724,223.22724 0 0 1 58.69921,23.46926c107.18382,61.88693 143.55162,197.78628 81.66469,304.33603c-61.25286,106.54106 -197.78628,142.90886 -304.33603,81.66469a221.17737,221.17737 0 0 1 -55.06851,-44.70625l-510.60843,294.79893a222.97535,222.97535 0 0 1 11.24822,70.18195c0,122.49703 -99.52287,222.67134 -222.66266,222.67134c-123.13979,0 -222.66266,-99.54024 -222.66266,-222.67134c0,-21.88843 3.14429,-43.02987 9.00726,-62.99872l-513.59637,-296.53611a224.30429,224.30429 0 0 1 -49.83961,39.2602c-107.18382,61.24417 -243.08317,24.87637 -304.33603,-81.66469c-61.24417,-106.54975 -24.87637,-242.4491 81.66469,-304.33603a223.3141,223.3141 0 0 1 58.69921,-23.47795l0,-593.4544a223.20987,223.20987 0 0 1 -59.33328,-23.62561c-106.54975,-61.24417 -142.91755,-197.7776 -81.66469,-304.32735c61.25286,-106.54975 197.7776,-142.91755 304.32735,-81.66469a224.26955,224.26955 0 0 1 50.29127,39.73792l513.88301,-296.70114a223.28804,223.28804 0 0 1 -9.10281,-63.3201c0,-123.12242 99.52287,-222.66266 222.66266,-222.66266c123.13979,0 222.66266,99.53155 222.66266,222.66266c0,22.13163 -3.21378,43.49023 -9.19835,63.65016zm-53.52242,91.39288l514.96005,297.31784a222.34997,222.34997 0 0 0 21.1675,172.24978c31.34736,54.52999 82.41168,90.68064 139.08707,104.76914l0,594.20138c-2.8924,0.70356 -5.76743,1.4766 -8.62508,2.29307l-672.57412,-1164.88139c2.0325,-1.94564 4.03025,-3.92602 5.98457,-5.94115l0,-0.00869zm-313.76022,6.08012l-672.56544,1164.86402a224.30429,224.30429 0 0 0 -8.77274,-2.34519l0,-594.26218c56.6754,-14.08851 107.73972,-50.23916 139.08707,-104.76914a222.35865,222.35865 0 0 0 21.08064,-172.57985l514.81239,-297.23098c2.07593,2.14541 4.19528,4.25608 6.35807,6.31464l0,0.00869zm216.03533,52.76675l672.40909,1164.60344a221.42058,221.42058 0 0 0 -39.1994,50.00464a223.22724,223.22724 0 0 0 -23.46926,58.69921l-1343.89747,0a223.3141,223.3141 0 0 0 -23.48663,-58.69921a224.31298,224.31298 0 0 0 -39.1386,-49.718l672.53938,-1164.83796a223.35753,223.35753 0 0 0 62.0259,8.72063c21.6018,0 42.47398,-3.05743 62.21699,-8.77274zm102.45001,1689.21351l511.61599,-295.38957a224.66041,224.66041 0 0 1 -4.10842,-14.60966l-1344.40126,0c-0.71224,2.8924 -1.48529,5.75874 -2.31045,8.6164l514.11752,296.84011a221.99384,221.99384 0 0 1 160.41961,-68.11471a222.04596,222.04596 0 0 1 164.667,72.65743z"/>
 </g>
</svg>