<svg width="2500" height="2500" xmlns="http://www.w3.org/2000/svg">

 <g>
  <title>background</title>
  <rect fill="none" id="canvas_background" height="2502" width="2502" y="-1" x="-1"/>
 </g>
 <g>
  <title>Layer 1</title>
  <g stroke="null" id="svg_4">
   <path stroke="null" id="svg_1" fill="#599636" d="m1242.27967,23.20458l65.8349,123.65243c14.80129,22.81865 30.83602,43.01624 49.72308,61.82622a1727.27952,1727.27952 0 0 1 154.48845,174.68604c111.54929,146.47108 186.78918,309.13108 240.52094,485.05055c32.22364,107.46352 49.72308,217.70228 51.03361,329.17449c5.3963,333.26026 -108.85114,619.4185 -339.19619,857.24129a979.04355,979.04355 0 0 1 -121.03137,103.45484c-22.81865,0 -33.61126,-17.49944 -43.01624,-33.61126a276.67617,276.67617 0 0 1 -33.61126,-96.748c-8.09445,-40.31809 -13.41367,-80.63619 -10.79261,-122.26481l0,-18.80997c-1.85016,-4.00868 -21.97066,-1854.16973 -13.9533,-1863.65181z"/>
   <path stroke="null" id="svg_2" fill="#6cac48" d="m1242.27967,19.1188c-2.69815,-5.3963 -5.3963,-1.31053 -8.09445,1.31053c1.31053,26.98152 -8.09445,51.03361 -22.81865,74.00644c-16.18891,22.81865 -37.61994,40.31809 -59.12806,59.12806c-119.48957,103.45484 -213.53942,228.4178 -288.85639,368.18205c-100.21706,188.09971 -151.86739,389.69017 -166.51449,601.91906c-6.70683,76.55041 24.20627,346.67393 48.33546,424.61196c65.8349,206.90968 184.09102,380.28519 337.26894,530.76495c37.61994,36.23232 77.86094,69.84358 119.48957,102.14431c12.10314,0 13.41367,-10.79261 16.18891,-18.80997a368.49041,368.49041 0 0 0 12.10314,-52.42123l26.98152,-201.51337l-14.95547,-1889.32279z"/>
   <path stroke="null" id="svg_3" fill="#c2bfbf" d="m1308.11457,2240.16005c2.69815,-30.83602 17.49944,-56.42991 33.61126,-81.94672c-16.18891,-6.70683 -28.21496,-20.04341 -37.61994,-34.92179a249.38629,249.38629 0 0 1 -20.04341,-44.32678c-18.80997,-56.42991 -22.81865,-115.63507 -28.21496,-173.29842l0,-34.92179c-6.70683,5.3963 -8.09445,51.03361 -8.09445,57.81753a1339.05406,1339.05406 0 0 1 -24.20627,181.39287c-4.00868,24.20627 -6.70683,48.33546 -21.58521,69.84358c0,2.69815 0,5.3963 1.31053,9.40499c24.20627,71.2312 30.83602,143.77293 34.92179,217.70228l0,26.98152c0,32.22364 -1.31053,25.43971 25.43971,36.23232c10.79261,4.00868 22.81865,5.3963 33.61126,13.41367c8.09445,0 9.40499,-6.70683 9.40499,-12.10314l-4.00868,-44.32678l0,-123.65243c-1.31053,-21.58521 2.69815,-43.01624 5.3963,-63.21384l0.07709,-0.07709z"/>
  </g>
 </g>
</svg>