<svg width="2500" height="2500" xmlns="http://www.w3.org/2000/svg">

 <g>
  <title>background</title>
  <rect fill="none" id="canvas_background" height="2502" width="2502" y="-1" x="-1"/>
 </g>
 <g>
  <title>Layer 1</title>
  <g stroke="null" id="svg_1" fill-rule="evenodd" fill="none">
   <path stroke="null" id="svg_2" fill="#8E714E" d="m2327.20643,1188.60357c-2.24208,0.44842 -4.4939,5.39561 -4.4939,8.09098c-0.44842,17.99511 -0.89683,65.67339 -0.89683,98.05679c0,0.90171 1.34525,2.70024 2.69537,2.70024c6.74573,0.44842 22.93743,0.89683 36.88218,0.89683c19.34036,0 30.58487,-2.69537 36.88706,-5.39074c16.18683,-8.10073 23.83426,-25.64255 23.83426,-44.98778c0,-43.62304 -30.58487,-60.26803 -76.01619,-60.26803c-3.14866,-0.44842 -12.13647,-0.44842 -18.89194,0.90171zm116.05191,201.05591c0,-44.52962 -32.83669,-69.27046 -92.20789,-69.27046c-2.70024,0 -21.59219,-0.44842 -26.09096,0.44842c-1.35012,0.45329 -3.14378,1.35499 -3.14378,2.70512c0,31.93012 -0.45329,82.76192 0.89683,102.5507c0.89683,8.54427 7.19902,20.69048 14.84646,24.28755c8.09098,4.49878 26.53451,5.39561 39.12914,5.39561c35.53206,0 66.57022,-19.78878 66.57022,-66.11693zm-207.80164,-225.79188c4.4939,0 17.98536,1.34525 52.6206,1.34525c32.83669,0 58.92278,-0.89683 90.85777,-0.89683c39.12914,0 93.10473,13.93988 93.10473,72.41425c0,28.78633 -20.24207,51.72864 -46.77657,62.97315c-1.34525,0.44842 -1.34525,1.34525 0,1.79366c37.77901,9.45085 71.069,32.83669 71.069,76.91302c0,43.18437 -26.9878,70.62058 -66.1218,87.71399c-23.83914,10.3428 -53.5223,13.93988 -83.65875,13.93988c-22.94231,0 -84.56046,-2.69537 -118.7424,-1.79366c-3.59707,-1.35499 3.14866,-17.5467 6.29244,-20.24207c8.10073,-0.45329 14.39317,-0.90171 22.94231,-3.60195c12.14621,-3.14378 13.49146,-6.74573 15.29,-25.18438c0.90171,-15.74329 0.90171,-71.52229 0.90171,-111.09984c0,-54.42401 0.45329,-91.30619 0,-109.29643c-0.44842,-13.93988 -5.39561,-18.44353 -15.29,-21.14377c-7.65231,-1.34525 -20.24207,-3.14866 -30.58974,-4.4939c-2.25183,-2.25183 5.39561,-17.5467 8.10073,-19.34036zm-259.53515,279.76747c10.80097,8.53939 31.93986,12.13647 50.83181,12.13647c24.28755,0 48.57511,-4.48903 71.96583,-25.63767c23.83914,-21.58244 40.47926,-54.86755 40.47926,-107.94143c0,-50.83181 -19.34036,-92.21277 -58.92278,-116.49545c-22.48902,-13.94962 -51.27535,-19.78878 -84.56046,-19.78878c-9.89439,0 -19.34036,0.44842 -25.18438,3.14378c-1.35499,0.90171 -4.49878,4.94719 -4.49878,7.19415c-0.90171,8.99756 -0.90171,78.26314 -0.90171,118.74727c0,41.82938 0,100.30375 0.90171,107.04948c0,6.7506 3.14378,17.09341 9.89439,21.59219l-0.00487,0zm-102.10228,-279.77234c8.54914,0 41.38096,1.35012 57.12425,1.35012c28.34279,0 48.57998,-1.34525 102.10228,-1.34525c44.97803,0 82.76192,12.14134 109.74972,35.07877c32.83182,28.33792 49.9301,67.47193 49.9301,115.14533c0,67.92034 -31.03816,107.05435 -62.07632,129.54337c-31.02841,22.93743 -71.51254,36.42889 -129.0852,36.42889c-30.58487,0 -83.21034,-0.89683 -126.84313,-1.35012l-0.44842,0c-2.24695,-4.04549 3.59707,-19.78878 7.19415,-20.23719c11.6978,-1.35012 14.84646,-1.80341 20.69535,-4.04549c9.4411,-3.60195 11.24451,-8.54914 12.59463,-25.18926c1.34525,-31.03816 0.89683,-68.36876 0.89683,-110.65142c0,-30.13158 0.44842,-89.05924 -0.45329,-107.95118c-1.34525,-15.73841 -8.09098,-19.78878 -21.58731,-22.48902c-6.74573,-1.34525 -15.74329,-3.14866 -28.33304,-4.4939c-1.80341,-3.15353 6.29244,-17.09341 8.53939,-19.78878l0,-0.00487z"/>
   <path stroke="null" id="svg_3" fill="#442D22" d="m1329.5792,1461.17202c-11.24451,-1.35012 -19.34036,-3.14378 -29.23475,-7.64256c-1.35012,-0.90171 -3.60195,-5.39561 -3.60195,-7.19902c-0.89683,-15.74329 -0.89683,-60.72132 -0.89683,-90.8529c0,-24.29243 -4.04549,-45.43132 -14.39317,-60.27291c-12.14621,-17.09828 -29.68316,-26.9878 -52.17705,-26.9878c-19.78878,0 -46.32816,13.49146 -68.36876,32.3834c-0.44842,0.44842 -4.04549,3.60195 -3.59707,-1.35012c0,-4.94719 0.90171,-14.84158 1.35012,-21.59219c0.45329,-6.29731 -3.14866,-9.4411 -3.14866,-9.4411c-14.39317,7.19415 -54.87242,16.64012 -69.71888,17.98536c-10.79122,2.2567 -13.49146,12.5995 -2.24208,16.19658l0.44842,0c12.13647,3.59707 20.23719,7.64744 26.52963,11.6978c4.49878,3.59707 4.05036,8.54427 4.05036,12.59463c0.44842,33.72865 0.44842,85.45729 -0.89683,113.79521c-0.44842,11.24451 -3.59707,15.29 -11.6978,17.08853l0.90171,-0.44842c-6.29731,1.35012 -11.24451,2.69537 -18.89194,3.59707c-2.70024,2.70024 -2.70024,17.09341 0,20.24207c4.94719,0 31.03328,-1.35012 52.63034,-1.35012c29.68316,0 44.97803,1.35012 52.6206,1.35012c3.14866,-3.59707 4.05036,-17.09341 2.25183,-20.24207c-8.54914,-0.44842 -14.84646,-1.34525 -20.69048,-3.14866c-8.09585,-1.80341 -10.34768,-5.84403 -10.80097,-15.29c-0.89196,-23.84401 -0.89196,-74.21766 -0.89196,-108.3996c0,-9.44597 2.69537,-13.94475 5.39074,-16.64499c10.34768,-8.99268 26.99267,-15.29 41.83425,-15.29c14.39317,0 23.83426,4.49878 31.03328,10.34768c9.89439,8.09098 13.04305,19.78878 14.39317,28.33304c2.24695,19.34036 1.35012,57.57266 1.35012,90.85777c0,17.99024 -1.35012,22.48902 -8.09098,24.73597c-3.15353,1.35012 -11.24938,3.15353 -20.69535,4.04549c-3.14866,3.15353 -2.24695,17.09828 0,20.24694c13.04305,0 28.33792,-1.35012 50.82693,-1.35012c27.88463,0 45.87974,1.35012 53.07876,1.35012c2.24208,-2.70024 3.14378,-15.74329 1.34525,-19.34523zm124.5913,-171.81141c-23.83426,0 -38.68072,18.43865 -38.68072,47.22011c0,29.23962 13.04305,62.97315 49.92523,62.97315c6.29731,0 17.99511,-2.70024 23.38585,-8.99756c8.54914,-8.09098 14.39804,-24.28755 14.39804,-41.38096c0,-37.3306 -18.44353,-59.81962 -49.0284,-59.81962l0,0.00487zm-3.14866,198.79921c-8.99268,0 -15.29487,2.70024 -19.34036,4.95207c-18.89194,12.13647 -27.43621,23.83426 -27.43621,37.78389c0,13.03817 4.94719,23.38097 15.74329,32.37853c13.04305,11.24451 31.03328,16.64499 53.97072,16.64499c45.87974,0 66.1218,-24.74084 66.1218,-49.02352c0,-17.09828 -8.54914,-28.34279 -26.08609,-34.63523c-12.59463,-5.40048 -35.53206,-8.10073 -62.97315,-8.10073zm3.14866,116.94874c-27.43621,0 -47.22986,-5.8489 -64.31839,-18.89194c-16.64499,-12.59463 -23.83914,-31.48657 -23.83914,-44.52962c0,-3.59707 0.90171,-13.49633 8.99756,-22.48902c4.94232,-5.40048 15.74329,-15.74329 41.38096,-33.28511c0.89683,-0.44842 1.34525,-0.89683 1.34525,-1.80341c0,-0.89683 -0.90171,-1.79854 -1.79854,-2.24208c-21.1389,-8.09585 -27.43621,-21.14377 -29.23962,-28.33792l0,-0.90171c-0.44354,-2.70024 -1.34525,-5.39561 2.70512,-8.09585c3.14866,-2.24695 7.64744,-4.94719 12.58976,-8.09098c7.64744,-4.50365 15.74329,-9.45085 20.69048,-13.50121c0.90171,-0.89683 0.90171,-1.79366 0.90171,-2.69537c0,-0.90171 -0.90171,-1.80341 -1.80341,-2.24695c-31.47683,-10.34768 -47.22011,-33.7384 -47.22011,-68.82205c0,-22.93743 10.3428,-43.62791 28.78146,-56.67096c12.59463,-9.89439 44.0812,-22.0406 64.77168,-22.0406l1.35012,0c21.1389,0.44842 32.83182,4.94719 49.47194,10.79609c8.99756,3.14866 17.5467,4.4939 29.2445,4.4939c17.53695,0 25.18438,-5.39561 31.47683,-11.68805c0.45329,0.89683 1.35499,3.14866 1.80341,8.99268c0.44842,5.8489 -1.35012,14.39317 -5.8489,20.69048c-3.59707,4.94719 -11.69292,8.54914 -19.78878,8.54914l-2.25183,0c-8.09585,-0.90171 -11.6978,-1.80341 -11.6978,-1.80341l-1.79366,0.90171c-0.44842,0.90171 0,1.79854 0.44842,3.14866l0.45329,0.90171c0.89683,4.04549 2.69537,16.18683 2.69537,19.34036c0,36.88218 -14.84158,53.06901 -30.58487,65.21523c-15.29487,11.24451 -32.83182,18.43865 -52.62547,20.24207c-0.44842,0 -2.24208,0 -6.29731,0.44842c-2.24695,0 -5.39561,0.45329 -5.8489,0.45329l-0.44842,0c-3.59707,0.89683 -12.58976,5.39561 -12.58976,13.03817c0,6.74573 4.04549,14.84646 23.38585,16.19658c4.04549,0.44842 8.09098,0.44842 12.59463,0.90171c25.63767,1.79366 57.57266,4.04549 72.41425,8.99268c20.69048,7.64256 33.73353,26.08609 33.73353,48.12669c0,33.28998 -23.83426,64.32327 -63.41669,83.65875c-19.34036,8.54914 -38.68559,13.04792 -59.82449,13.04792zm256.37674,-313.50099c-9.4411,0 -17.99024,2.24208 -24.28755,6.74086c-17.53695,10.79609 -26.53451,32.38828 -26.53451,63.86998c0,58.92766 29.68316,100.30862 71.96583,100.30862c12.59463,0 22.48902,-3.60195 31.03328,-10.79609c13.04305,-10.80097 19.79365,-32.38828 19.79365,-62.52473c0,-58.46949 -29.23962,-97.6035 -71.96583,-97.6035l-0.00487,0.00487zm8.10073,192.50677c-76.46461,0 -103.90082,-56.22254 -103.90082,-108.84801c0,-36.88218 14.84158,-65.2201 44.52474,-85.46216c21.14377,-13.04305 46.33303,-20.23719 68.82205,-20.23719c58.46949,0 99.40204,41.82938 99.40204,102.10228c0,40.92767 -16.1917,73.31108 -47.22986,93.10473c-14.84158,9.89439 -40.47926,19.34036 -61.62303,19.34036l0.00487,0zm-801.52339,-192.51164c-9.44597,0 -17.99024,2.24695 -24.29243,6.74573c-17.53695,10.79609 -26.53451,32.38828 -26.53451,63.86998c0,58.92766 29.68316,100.30862 71.96583,100.30862c12.59463,0 22.48902,-3.60195 31.03816,-10.79609c13.03817,-10.80097 19.78878,-32.38828 19.78878,-62.52473c0,-58.46949 -28.78633,-97.6035 -71.96583,-97.6035zm8.09585,192.51164c-76.46461,0 -103.90082,-56.22254 -103.90082,-108.84801c0,-36.88218 14.84158,-65.2201 44.52474,-85.46216c21.14377,-13.04305 46.33303,-20.23719 68.82205,-20.23719c58.47437,0 99.40204,41.82938 99.40204,102.10228c0,40.92767 -16.1917,73.31108 -47.22986,93.10473c-14.39317,9.89439 -40.03084,19.34036 -61.61815,19.34036zm-514.10848,-4.49878c-0.90171,-1.34525 -1.80341,-5.39561 -1.35012,-10.3428c0,-3.60195 0.90171,-5.8489 1.35012,-6.74573c9.44597,-1.35499 14.39317,-2.70512 19.78878,-4.05036c8.99756,-2.25183 12.59463,-7.19415 13.04305,-18.43865c1.35499,-26.9878 1.35499,-78.26802 0.90171,-113.80008l0,-0.90171c0,-4.04549 0,-8.99756 -4.94719,-12.59463c-7.19902,-4.4939 -15.74329,-8.53939 -26.9878,-11.6978c-4.04549,-1.34037 -6.74573,-3.5922 -6.29731,-6.28757c0,-2.70024 2.70024,-5.8489 8.54914,-6.7506c14.84158,-1.35012 53.51743,-10.79122 68.8123,-17.54182c0.90171,0.89683 2.25183,3.60195 2.25183,7.19902l-0.44842,4.94232c-0.45329,4.95207 -0.90171,10.80097 -0.90171,16.64499c0,1.79854 1.80341,3.14866 3.59707,3.14866c0.90171,0 1.80341,-0.44842 2.70024,-0.90171c28.78633,-22.48902 54.87242,-30.58487 68.36388,-30.58487c22.04548,0 39.13888,10.34768 52.18193,31.93499c0.89683,1.35499 1.79854,1.80341 3.14866,1.80341c0.89683,0 2.24208,-0.44842 2.69537,-1.35012c26.53938,-20.24207 53.07876,-32.38828 70.61571,-32.38828c41.82938,0 66.57022,31.03816 66.57022,83.66363c0,14.84158 0,34.18194 -0.44842,51.72864c0,15.73841 -0.44842,30.13158 -0.44842,40.47926c0,2.24208 3.14378,9.4411 8.09098,10.79122c6.29731,3.14866 14.84646,4.49878 26.09096,6.29731l0.44842,0c0.90171,3.14866 -0.89683,14.84158 -2.69537,17.09341c-2.70024,0 -6.7506,0 -11.24451,-0.44842a663.88904,663.88904 0 0 0 -34.18682,-0.90171c-27.88463,0 -42.27779,0.44842 -56.22742,1.35012c-0.89196,-3.59707 -1.34525,-14.39317 0,-17.09341c8.10073,-1.34525 12.14621,-2.70024 17.09828,-4.04549c8.99756,-2.70024 11.24451,-6.7506 11.6978,-18.44353c0,-8.54427 1.79366,-81.4118 -0.90658,-98.95362c-2.69537,-17.99024 -16.1917,-39.12914 -45.87974,-39.12914c-11.24451,0 -28.78146,4.49878 -45.87487,17.53695c-0.89683,0.90171 -1.80341,3.14866 -1.80341,4.49878l0,0.45329c1.80341,9.4411 1.80341,20.24207 1.80341,36.88218l0,29.23475c0,20.24207 -0.45329,39.13401 0,53.5223c0,9.89926 5.8489,12.14621 10.79609,13.94962c2.70024,0.44354 4.4939,0.89683 6.74573,1.34525c4.04549,0.90171 8.09585,1.80341 14.39317,3.14866c0.90171,1.80341 0.90171,7.64744 -0.44842,12.59463c-0.45329,2.70024 -1.35499,4.04549 -1.80341,4.49878c-15.29,-0.44842 -31.03328,-0.90171 -53.97072,-0.90171c-6.74573,0 -18.44353,0.45329 -28.33792,0.45329c-8.10073,0 -15.74329,0.44842 -20.23719,0.44842c-0.45329,-0.90171 -1.35499,-4.04549 -1.35499,-8.99756c0,-4.04549 0.90171,-7.19415 1.80341,-8.09585c2.24695,-0.44842 4.04549,-0.89683 6.29731,-0.89683c5.39074,-0.90171 9.89439,-1.80341 14.38829,-2.70024c7.65231,-2.24695 10.34768,-6.29731 10.79609,-16.1917c1.35012,-22.48902 2.70024,-86.80741 -0.44842,-103.00399c-5.39561,-26.08609 -20.23719,-39.12914 -44.0812,-39.12914c-13.93988,0 -31.48657,6.74573 -45.87487,17.5467c-2.25183,1.79366 -4.05036,6.28757 -4.05036,10.33793l0,26.53938c0,32.3834 0,72.86753 0.44842,90.40936c0.45329,5.39074 2.24695,11.69292 12.59463,13.93988c2.25183,0.44842 5.8489,1.35012 10.34768,1.80341l8.09098,1.34525c0.90658,2.70024 0.45329,13.49633 -1.34525,17.09341c-4.49878,0 -9.89439,-0.44842 -16.19658,-0.44842c-9.4411,-0.45329 -21.58731,-0.90171 -35.07877,-0.90171c-15.74329,0 -26.9878,0.44842 -35.98535,0.90171c-6.29731,-0.90171 -11.24451,-0.90171 -16.64012,-0.90171z"/>
   <path stroke="null" id="svg_4" fill="#FFF" d="m174.5191,1587.56673l-18.43865,-6.30219s2.25183,-94.00156 -31.48657,-100.74729c-22.48414,-26.09096 3.60682,-1106.48011 84.56533,-3.60195c0,0 -27.8895,13.93988 -32.83669,37.78389c-5.40048,23.39072 -1.80341,72.86753 -1.80341,72.86753z"/>
   <path stroke="null" id="svg_5" fill="#A6A385" d="m174.5191,1587.56673l-18.43865,-6.30219s2.25183,-94.00156 -31.48657,-100.74729c-22.48414,-26.09096 3.60682,-1106.48011 84.56533,-3.60195c0,0 -27.8895,13.93988 -32.83669,37.78389c-5.40048,23.39072 -1.80341,72.86753 -1.80341,72.86753z"/>
   <path stroke="null" id="svg_6" fill="#FFF" d="m184.41837,1496.70896s161.47836,-106.15264 123.68959,-327.0022c-36.42889,-160.5669 -122.33947,-213.19237 -131.78545,-233.43444c-10.3428,-14.39317 -20.24207,-39.57755 -20.24207,-39.57755l6.7506,446.63169c0,0.45329 -13.94475,136.73751 21.59219,153.38738"/>
   <path stroke="null" id="svg_7" fill="#499D4A" d="m184.41837,1496.70896s161.47836,-106.15264 123.68959,-327.0022c-36.42889,-160.5669 -122.33947,-213.19237 -131.78545,-233.43444c-10.3428,-14.39317 -20.24207,-39.57755 -20.24207,-39.57755l6.7506,446.63169c0,0.45329 -13.94475,136.73751 21.59219,153.38738"/>
   <path stroke="null" id="svg_8" fill="#FFF" d="m146.63935,1502.55298s-151.58397,-103.4524 -142.58641,-285.61149c8.54427,-182.16396 115.59374,-271.67162 136.28422,-287.86332c13.49633,-14.39317 13.94475,-19.79365 14.84646,-34.18682c9.44597,20.24207 7.64744,302.70977 8.99268,335.99001c4.04549,128.18837 -7.19415,247.38894 -17.53695,271.67162z"/>
   <path stroke="null" id="svg_9" fill="#58AA50" d="m146.63935,1502.55298s-151.58397,-103.4524 -142.58641,-285.61149c8.54427,-182.16396 115.59374,-271.67162 136.28422,-287.86332c13.49633,-14.39317 13.94475,-19.79365 14.84646,-34.18682c9.44597,20.24207 7.64744,302.70977 8.99268,335.99001c4.04549,128.18837 -7.19415,247.38894 -17.53695,271.67162z"/>
  </g>
 </g>
</svg>