<svg width="2500" height="2500" xmlns="http://www.w3.org/2000/svg" style="vector-effect: non-scaling-stroke;" stroke="null">

 <g stroke="null">
  <title stroke="null">background</title>
  <rect stroke="null" fill="none" id="canvas_background" height="2502" width="2502" y="-1" x="-1"/>
 </g>
 <g stroke="null">
  <title stroke="null">Layer 1</title>
  <g stroke="null" id="svg_5">
   <path stroke="null" id="svg_2" fill="#00678c" d="m8.504,1781.76874l82.23259,0l0,-325.76867l128.42462,284.02854c14.54666,34.1407 35.43091,46.80169 75.90919,46.80169c40.49246,0 60.10068,-12.66098 75.28536,-46.80169l127.78661,-284.02854l0,325.76867l82.8706,0l0,-325.76867c0,-31.61701 -12.66098,-46.83004 -39.23062,-55.0533c-62.62437,-18.97021 -104.37868,-2.52369 -123.34889,39.85445l-125.87258,280.88102l-121.46321,-280.88102c-18.34637,-42.36396 -60.73869,-58.81048 -123.9869,-39.85445c-25.93162,8.22326 -38.59261,23.42211 -38.59261,55.0533l0,325.76867l-0.01418,0zm640.81875,-265.04415l82.8706,0l0,179.02603c-0.62383,10.10894 3.1617,32.89304 48.07771,33.50269c23.40793,0.63801 178.38801,0 179.64986,0l0,-213.80474l82.8706,0l0,292.88981c0,72.10948 -89.19401,87.91798 -130.94831,88.556l-260.63478,0l0,-55.02495l261.25862,0c53.13927,-5.69957 46.81587,-32.25503 46.81587,-41.1163l0,-21.52225l-175.22631,0c-81.60876,-0.63801 -134.11002,-36.69275 -134.73385,-77.80905c0,-3.78553 1.88568,-183.44957 0,-184.69724zm1777.55674,-207.49552c-50.58722,-1.26184 -89.83202,3.79971 -122.72506,17.72254c-9.47093,3.81389 -24.66978,3.81389 -25.91744,15.82269c5.06156,5.0332 5.67121,13.27064 10.10894,20.24623c7.58525,12.66098 20.88424,29.71716 32.89304,38.57843c13.299,10.13729 26.58381,20.24623 40.47828,29.1075c24.66978,15.1705 52.50126,24.03177 76.53302,39.21644c13.92283,8.86127 27.83148,20.24623 41.75431,29.74551c6.94724,5.06156 11.38496,13.299 20.24623,16.44652l0,-1.91403c-4.42355,-5.67121 -5.69957,-13.89447 -10.10894,-20.24623c-6.33758,-6.30922 -12.66098,-12.02297 -18.99856,-18.3322c-18.3322,-24.66978 -41.1163,-46.19203 -65.80025,-63.88622c-20.24623,-13.92283 -64.52423,-32.89304 -72.74749,-56.30097l-1.24767,-1.27602c13.89447,-1.27602 30.35517,-6.33758 43.63999,-10.13729c21.52225,-5.67121 41.1163,-4.42355 63.24821,-10.10894c10.13729,-2.53787 20.24623,-5.69957 30.38353,-8.86127l0,-5.68539c-11.38496,-11.38496 -19.60822,-26.56963 -31.61701,-37.31658c-32.25503,-27.83148 -67.70011,-55.03912 -104.39286,-77.80905c-19.60822,-12.64681 -44.91601,-20.88424 -65.7719,-31.61701c-7.6136,-3.79971 -20.24623,-5.69957 -24.66978,-12.02297c-11.41332,-13.90865 -17.72254,-32.25503 -25.9458,-48.71572c-18.3322,-34.79289 -36.05474,-73.37132 -51.86325,-110.06407c-11.38496,-24.66978 -18.36055,-49.33956 -32.25503,-72.10948c-65.16224,-107.54038 -136.02405,-172.70262 -244.82628,-236.58884c-23.39375,-13.28482 -51.22523,-18.98439 -80.97075,-25.93162c-15.80851,-0.63801 -31.61701,-1.89986 -47.4397,-2.53787c-10.13729,-4.42355 -20.24623,-16.44652 -29.1075,-22.14609c-36.05474,-22.76992 -129.04846,-72.10948 -155.63227,-6.96141c-17.08453,41.1163 25.30779,81.59458 39.85445,102.47882c10.77531,14.54666 24.66978,30.99318 32.28338,47.4397c4.40937,10.74695 5.67121,22.14609 10.10894,33.53105c10.10894,27.83148 19.60822,58.82466 32.89304,84.77046c6.94724,13.28482 14.53248,27.20765 23.39375,39.23062c5.06156,6.96141 13.92283,10.12312 15.80851,21.50808c-8.86127,12.66098 -9.47093,31.63119 -14.53248,47.45388c-22.7841,71.48564 -13.92283,160.04164 18.3322,212.5429c10.13729,15.80851 34.16906,50.6014 66.43826,37.31658c28.46949,-11.38496 22.13191,-47.4397 30.35517,-79.07089c1.91403,-7.58525 0.63801,-12.64681 4.42355,-17.70836l0,1.26184c8.86127,17.70836 17.72254,34.79289 25.9458,52.50126c19.60822,30.99318 53.77728,63.26238 82.24677,84.77046c15.1705,11.38496 27.19347,31.00736 46.16368,37.95459l0,-1.91403l-1.24767,0c-3.79971,-5.67121 -9.49928,-8.20908 -14.56084,-12.64681c-11.38496,-11.38496 -24.03177,-25.30779 -32.89304,-37.95459c-26.55546,-35.41673 -49.94921,-74.64734 -70.83345,-115.12563c-10.13729,-19.60822 -18.99856,-41.1163 -27.19347,-60.72452c-3.82807,-7.59943 -3.82807,-18.98439 -10.13729,-22.76992c-9.49928,13.90865 -23.39375,25.9458 -30.38353,43.01615c-12.02297,27.19347 -13.27064,60.72452 -17.69419,95.51741c-2.55205,0.63801 -1.27602,0 -2.55205,1.26184c-20.21788,-5.04738 -27.19347,-25.93162 -34.77872,-43.63999c-18.97021,-44.91601 -22.14609,-117.02549 -5.69957,-168.90291c4.42355,-13.28482 23.42211,-55.03912 15.83686,-67.68593c-3.82807,-12.02297 -16.44652,-18.97021 -23.42211,-28.46949c-8.22326,-12.02297 -17.05617,-27.19347 -22.75574,-40.47828c-15.1705,-35.43091 -22.75574,-74.64734 -39.21644,-110.07825c-7.6136,-16.44652 -20.88424,-33.53105 -31.64537,-48.70154c-12.02297,-17.08453 -25.27943,-29.1075 -34.77872,-49.33956c-3.1617,-6.96141 -7.58525,-18.34637 -2.52369,-25.93162c1.24767,-5.06156 3.79971,-6.96141 8.83291,-8.22326c8.22326,-6.96141 31.64537,1.89986 39.86863,5.68539c23.39375,9.4851 43.00197,18.34637 62.61019,31.61701c8.86127,6.3234 18.36055,18.34637 29.74551,21.52225l13.299,0c20.24623,4.42355 43.00197,1.26184 61.97218,6.94724c33.53105,10.76113 63.88622,26.56963 91.10804,43.65416c82.85643,52.50126 151.19455,127.1486 197.35822,216.34261c7.58525,14.54666 10.74695,27.83148 17.72254,43.01615c13.299,31.00736 29.74551,62.62437 43.00197,92.99372c13.299,29.73134 25.9458,60.10068 44.91601,84.77046c9.49928,13.28482 47.4397,20.23205 64.52423,27.19347c12.66098,5.68539 32.25503,10.76113 43.66834,17.70836c21.4939,13.28482 43.00197,28.46949 63.24821,43.01615c10.10894,7.57107 41.75431,23.37958 43.63999,36.02638z"/>
   <path stroke="null" id="svg_3" fill="#00678c" d="m1781.63719,759.51837c-10.74695,0 -18.3322,1.26184 -25.91744,3.1617l0,1.26184l1.24767,0c5.06156,10.12312 13.92283,17.08453 20.24623,25.93162c5.06156,10.12312 9.49928,20.24623 14.56084,30.36935l1.24767,-1.26184c8.86127,-6.3234 13.299,-16.44652 13.299,-31.63119c-3.79971,-4.42355 -4.42355,-8.86127 -7.58525,-13.28482c-3.79971,-6.3234 -12.02297,-9.4851 -17.09871,-14.54666z"/>
   <path stroke="null" id="svg_4" fill="#ce8b2c" d="m1106.05391,1781.76874l237.85069,0c27.83148,0 54.41529,-5.67121 75.90919,-15.80851c36.05474,-16.44652 53.13927,-38.57843 53.13927,-67.67175l0,-60.72452c0,-23.39375 -19.60822,-45.55402 -58.81048,-60.72452c-20.24623,-7.58525 -45.55402,-12.02297 -70.2238,-12.02297l-99.94096,0c-33.53105,0 -49.33956,-10.13729 -53.77728,-32.25503c-0.62383,-2.52369 -0.62383,-5.06156 -0.62383,-7.58525l0,-37.33076c0,-1.91403 0,-4.42355 0.62383,-6.94724c4.42355,-17.08453 13.28482,-21.52225 42.39232,-24.66978l243.53608,0l0,-55.0533l-231.54146,0c-33.53105,0 -51.23941,1.91403 -67.04792,6.97559c-48.71572,15.1705 -70.2238,39.21644 -70.2238,81.5804l0,48.10607c0,37.30241 41.75431,68.94778 112.60194,76.53302c7.58525,0.63801 15.80851,0.63801 24.03177,0.63801l85.40847,0c3.1617,0 6.30922,0 8.83291,0.63801c25.9458,2.52369 37.33076,6.94724 44.91601,16.41816c5.06156,5.06156 6.33758,9.49928 6.33758,15.19885l0,48.07771c0,5.67121 -3.79971,13.299 -11.38496,19.60822c-7.6136,6.30922 -19.63658,10.74695 -35.44508,11.38496c-3.1617,0 -5.0332,0.63801 -8.22326,0.63801l-228.33722,0l0,54.99659zm881.80278,-95.50323c0,56.30097 42.39232,87.91798 127.16278,94.25556c8.22326,0.63801 15.80851,1.24767 24.03177,1.24767l215.08076,0l0,-55.02495l-216.96644,0c-48.10607,0 -66.43826,-12.02297 -66.43826,-41.1163l0,-284.66655l-82.88478,0l0,285.30456l0.01418,0zm-462.41655,2.50951l0,-196.0822c0,-49.97757 35.41673,-80.36109 104.39286,-89.83202c7.58525,-0.63801 15.1705,-1.27602 22.13191,-1.27602l156.86576,0c8.22326,0 15.19885,0.63801 23.42211,1.27602c68.94778,9.47093 103.72649,39.85445 103.72649,89.83202l0,196.0822c0,40.47828 -14.53248,62.00054 -48.71572,76.56138l80.97075,73.35714l-95.50323,0l-65.80025,-59.44849l-66.43826,3.79971l-88.556,0c-14.53248,0 -30.99318,-1.88568 -48.07771,-6.30922c-52.4729,-14.57502 -78.4187,-42.4065 -78.4187,-87.96052zm89.19401,-4.39519c0,2.52369 1.27602,5.0332 1.91403,8.22326c4.42355,22.75574 25.91744,35.41673 58.81048,35.41673l74.66152,0l-68.30976,-62.00054l95.50323,0l60.0865,54.41529c11.41332,-6.33758 18.36055,-15.19885 20.88424,-26.58381c0.63801,-2.52369 0.63801,-5.67121 0.63801,-8.22326l0,-187.8873c0,-2.52369 0,-5.0332 -0.63801,-7.58525c-4.42355,-21.4939 -25.91744,-33.50269 -58.18665,-33.50269l-124.63909,0c-36.69275,0 -60.72452,15.80851 -60.72452,41.08794l0,186.63963zm777.46663,98.02692l12.02297,0l0,-46.16368l15.80851,0l0,-9.49928l-44.278,0l0,9.49928l16.44652,0l0,46.16368zm91.7177,0l11.38496,0l0,-55.66296l-17.05617,0l-13.92283,37.96877l-15.1705,-37.96877l-16.44652,0l0,55.66296l10.74695,0l0,-42.36396l0.63801,0l15.80851,42.36396l8.22326,0l15.80851,-42.36396l0,42.36396l-0.01418,0z"/>
  </g>
 </g>
</svg>