<svg width="2500" height="2500" xmlns="http://www.w3.org/2000/svg" style="vector-effect: non-scaling-stroke;" stroke="null" preserveAspectRatio="xMinYMin meet">

 <g stroke="null">
  <title stroke="null">background</title>
  <rect stroke="null" fill="none" id="canvas_background" height="2502" width="2502" y="-1" x="-1"/>
 </g>
 <g stroke="null">
  <title stroke="null">Layer 1</title>
  <g stroke="null" id="svg_1" fill="#8CC84B">
   <path stroke="null" id="svg_2" d="m1145.14181,38.90011c63.50261,-35.12711 146.2147,-35.28578 209.66258,0c319.20047,174.3045 638.50127,348.33574 957.64701,522.74602c60.02738,32.67658 100.17942,97.23642 99.56829,164.0793l0,1048.68302c0.44694,69.61073 -43.67286,135.71316 -107.00216,167.6493c-318.15152,173.34369 -636.13885,346.89893 -954.23564,520.24261c-64.81607,35.81467 -149.18825,33.05562 -211.97939,-5.69438c-95.38161,-53.43552 -190.9274,-106.60659 -286.31812,-159.98921c-19.49225,-11.2301 -41.4655,-20.16834 -55.22957,-38.43267c12.16784,-15.84907 33.92218,-17.82359 51.59929,-24.74324c39.81455,-12.23499 76.3819,-31.87444 112.95838,-50.9321c9.24901,-6.11749 20.5412,-3.77275 29.40712,1.70126c81.56281,45.19365 162.40504,91.7007 244.24149,136.46243c17.4582,9.74039 35.13531,-3.19097 50.05778,-11.2301c312.20442,-170.52294 624.79193,-340.4024 936.94162,-510.97822c11.56583,-5.37705 17.95987,-17.24181 17.02038,-29.48562c0.21891,-345.93811 0.05473,-691.93792 0.10946,-1037.87603c1.32259,-13.89218 -6.99605,-26.66487 -19.99393,-32.35044c-317.04784,-172.55035 -633.93149,-345.36515 -950.9246,-517.95957a33.02829,31.91851 0 0 0 -37.34267,-0.05289c-316.99311,172.64731 -633.82204,345.62078 -950.81515,518.16231c-12.95227,5.69438 -21.64488,18.25552 -20.10338,32.20058c0.05473,345.93811 0,691.93792 0,1037.92892a30.36486,29.34458 0 0 0 17.23929,29.11539c84.59109,46.35721 169.29163,92.38826 253.93745,138.5868c47.68624,24.80494 106.23597,39.54334 158.77476,20.53856c46.36365,-16.06944 78.8629,-61.79198 77.97813,-109.36563c0.43782,-343.91951 -0.21891,-687.89192 0.32837,-1031.75854c-1.15841,-15.26729 13.82792,-27.88132 29.18821,-26.4445c40.64459,-0.26444 81.3439,-0.52889 121.98849,0.10578c16.96565,-0.37022 28.64093,16.06944 26.54303,31.45132c-0.16418,346.09678 0.43782,692.20237 -0.27364,1038.29915c0.10946,92.23841 -39.10308,192.60409 -127.38831,237.73604c-108.76258,54.44922 -243.19254,42.90179 -350.64165,-9.30846c-93.01918,-44.8675 -181.78784,-97.8182 -273.15606,-145.88548c-63.49348,-31.75984 -107.39438,-98.12672 -106.94744,-167.68456l0,-1048.69183c-0.66586,-68.22681 41.08241,-133.95901 102.97966,-166.1596c318.09679,-173.48472 636.13885,-347.10167 954.18091,-520.66572z"/>
   <path stroke="null" id="svg_3" d="m1422.64874,765.33047c138.73522,-8.62972 287.25762,-5.1126 412.10108,60.93694c96.65859,50.61477 150.24632,156.84232 151.95201,260.61934c-2.69991,13.99795 -17.84129,21.71975 -31.66921,20.75893c-40.25237,-0.05289 -80.51386,0.52889 -120.76623,-0.26444c-17.0751,0.63467 -26.9991,-14.57973 -29.14261,-29.16828c-11.56583,-49.65395 -39.58651,-98.8319 -87.94773,-122.7818c-74.23839,-35.92044 -160.31626,-34.1134 -241.26794,-33.36414c-59.09701,3.0323 -122.64522,7.97742 -172.71213,41.56194c-38.43723,25.43961 -50.11251,76.79482 -36.39405,118.15402c12.93403,29.69717 48.40683,39.27889 77.43086,48.11136c167.19373,42.25831 344.36618,38.05363 508.36745,93.66641c67.89908,22.67175 134.32051,66.74591 157.56162,135.44872c30.40135,92.07974 17.0751,202.14174 -50.71452,276.06293c-54.97417,60.83116 -135.04109,93.93967 -214.89822,111.92193c-106.23597,22.89212 -216.48532,23.4739 -324.37225,13.3104c-101.44728,-11.17721 -207.0174,-36.93415 -285.33302,-103.73295c-66.96871,-56.19456 -99.67775,-143.75229 -96.43056,-228.26009c0.77531,-14.27121 15.47887,-24.22316 29.62604,-23.05079c40.53513,-0.31733 81.07026,-0.42311 121.60539,0.05289c16.19034,-1.11948 28.19399,12.40247 29.02403,27.14968c7.47948,47.30921 25.87717,96.96316 68.56494,125.01196c82.38373,51.36403 185.75561,47.84691 280.08826,49.28373c78.15144,-3.34964 165.88026,-4.36334 229.65651,-54.28174c33.64854,-28.47191 43.61814,-76.10727 34.52418,-117.08742c-9.85102,-34.59822 -47.30315,-50.72055 -79.46491,-61.26309c-165.05022,-50.4561 -344.202,-32.14769 -507.65599,-89.20611c-66.35758,-22.66293 -130.52604,-65.51184 -156.02012,-131.3939c-35.57313,-93.2433 -19.27334,-208.57657 55.62179,-280.00316c73.02526,-71.04755 178.44031,-98.40879 278.66534,-108.20207l0,0.00881z"/>
  </g>
 </g>
</svg>