<svg width="2500" height="2500" xmlns="http://www.w3.org/2000/svg">
  <rect fill="none" id="canvas_background" height="2502" width="2502" y="-1" x="-1"/>
  <g stroke="null" id="svg_1" fill="#61dafb">
   <path stroke="null" id="svg_2" d="m2496.56072,1250.25447c0,-165.40557 -207.13867,-322.15916 -524.71737,-419.36674c73.28739,-323.68598 40.71522,-581.20973 -102.80592,-663.65805c-33.08111,-19.33973 -71.76057,-28.50065 -114.00261,-28.50065l0,113.49367c23.41125,0 42.24204,4.58046 58.01919,13.23245c69.21587,39.69734 99.24334,190.85258 75.83209,385.26775c-5.59834,47.84038 -14.75927,98.22546 -25.95595,149.62842c-99.75228,-24.42913 -208.66549,-43.25992 -323.17704,-55.47448c-68.70693,-94.15394 -139.95856,-179.6559 -211.71913,-254.47011c165.91451,-154.20889 321.65022,-238.69296 427.50978,-238.69296l0,-113.49367c-139.95856,0 -323.17704,99.75228 -508.43128,272.79196c-185.25424,-172.02179 -368.47272,-270.7562 -508.43128,-270.7562l0,113.49367c105.35063,0 261.59527,83.97514 427.50978,237.16614c-71.25163,74.81421 -142.50326,159.80723 -210.19231,253.96117c-115.02049,12.21457 -223.9337,31.04535 -323.68598,55.98342c-11.70563,-50.89402 -20.35761,-100.26122 -26.46489,-147.59266c-23.92019,-194.41516 5.59834,-345.57041 74.30527,-385.77669c15.26821,-9.16092 35.11688,-13.23245 58.52813,-13.23245l0,-113.49367c-42.75098,0 -81.43044,9.16092 -115.02049,28.50065c-143.0122,82.44832 -175.07544,339.46313 -101.2791,662.13123c-316.56082,97.71652 -522.68161,253.96117 -522.68161,418.8578c0,165.40557 207.13867,322.15916 524.71737,419.36674c-73.28739,323.68598 -40.71522,581.20973 102.80592,663.65805c33.08111,19.33973 71.76057,28.50065 114.51155,28.50065c139.95856,0 323.17704,-99.75228 508.43128,-272.79196c185.25424,172.02179 368.47272,270.7562 508.43128,270.7562c42.75098,0 81.43044,-9.16092 115.02049,-28.50065c143.0122,-82.44832 175.07544,-339.46313 101.2791,-662.13123c315.54294,-97.20758 521.66373,-253.96117 521.66373,-418.8578zm-662.64017,-339.46313c-18.83079,65.65329 -42.24204,133.34234 -68.70693,201.03139c-20.86655,-40.71522 -42.75098,-81.43044 -66.67117,-122.14565c-23.41125,-40.71522 -48.34932,-80.41255 -73.28739,-119.09201c72.26951,10.68774 141.99432,23.92019 208.66549,40.20628zm-233.09462,542.02133c-39.69734,68.70693 -80.41255,133.85128 -122.65459,194.41516c-75.83209,6.61622 -152.68207,10.1788 -230.04098,10.1788c-76.84997,0 -153.69995,-3.56258 -229.0231,-9.66986c-42.24204,-60.56389 -83.4662,-125.19929 -123.16353,-193.39728c-38.67946,-66.67117 -73.79633,-134.36022 -105.85957,-202.55821c31.55429,-68.19799 67.18011,-136.39598 105.35063,-203.06715c39.69734,-68.70693 80.41255,-133.85128 122.65459,-194.41516c75.83209,-6.61622 152.68207,-10.1788 230.04098,-10.1788c76.84997,0 153.69995,3.56258 229.0231,9.66986c42.24204,60.56389 83.4662,125.19929 123.16353,193.39728c38.67946,66.67117 73.79633,134.36022 105.85957,202.55821c-32.06323,68.19799 -67.18011,136.39598 -105.35063,203.06715zm164.38769,-66.16223c27.48277,68.19799 50.89402,136.39598 70.23375,202.55821c-66.67117,16.28609 -136.90492,30.02747 -209.68337,40.71522c24.93807,-39.1884 49.87614,-79.39467 73.28739,-120.61883c23.41125,-40.71522 45.29568,-81.93938 66.16223,-122.65459zm-516.06538,543.03921c-47.33144,-48.85826 -94.66288,-103.31486 -141.48538,-162.86087c45.80462,2.03576 92.62712,3.56258 139.95856,3.56258c47.84038,0 95.17182,-1.01788 141.48538,-3.56258c-45.80462,59.54601 -93.13606,114.00261 -139.95856,162.86087zm-378.65152,-299.76579c-72.26951,-10.68774 -141.99432,-23.92019 -208.66549,-40.20628c18.83079,-65.65329 42.24204,-133.34234 68.70693,-201.03139c20.86655,40.71522 42.75098,81.43044 66.67117,122.14565s48.34932,80.41255 73.28739,119.09201zm376.10682,-1059.1046c47.33144,48.85826 94.66288,103.31486 141.48538,162.86087c-45.80462,-2.03576 -92.62712,-3.56258 -139.95856,-3.56258c-47.84038,0 -95.17182,1.01788 -141.48538,3.56258c45.80462,-59.54601 93.13606,-114.00261 139.95856,-162.86087zm-376.61576,299.76579c-24.93807,39.1884 -49.87614,79.39467 -73.28739,120.61883c-23.41125,40.71522 -45.29568,81.43044 -66.16223,122.14565c-27.48277,-68.19799 -50.89402,-136.39598 -70.23375,-202.55821c66.67117,-15.77715 136.90492,-29.51853 209.68337,-40.20628zm-460.5909,637.19316c-180.16484,-76.84997 -296.71215,-177.62014 -296.71215,-257.52375s116.54731,-181.18272 296.71215,-257.52375c43.76886,-18.83079 91.60924,-35.62582 140.97644,-51.40296c29.00959,99.75228 67.18011,203.57609 114.51155,309.94459c-46.8225,105.85957 -84.48408,209.17443 -112.98473,308.41777c-50.38508,-15.77715 -98.22546,-33.08111 -142.50326,-51.9119zm273.80984,727.27557c-69.21587,-39.69734 -99.24334,-190.85258 -75.83209,-385.26775c5.59834,-47.84038 14.75927,-98.22546 25.95595,-149.62842c99.75228,24.42913 208.66549,43.25992 323.17704,55.47448c68.70693,94.15394 139.95856,179.6559 211.71913,254.47011c-165.91451,154.20889 -321.65022,238.69296 -427.50978,238.69296c-22.90231,-0.50894 -42.24204,-5.0894 -57.51024,-13.74139zm1207.2062,-387.81245c23.92019,194.41516 -5.59834,345.57041 -74.30527,385.77669c-15.26821,9.16092 -35.11688,13.23245 -58.52813,13.23245c-105.35063,0 -261.59527,-83.97514 -427.50978,-237.16614c71.25163,-74.81421 142.50326,-159.80723 210.19231,-253.96117c115.02049,-12.21457 223.9337,-31.04535 323.68598,-55.98342c11.70563,51.40296 20.86655,100.77016 26.46489,148.1016zm195.94198,-339.46313c-43.76886,18.83079 -91.60924,35.62582 -140.97644,51.40296c-29.00959,-99.75228 -67.18011,-203.57609 -114.51155,-309.94459c46.8225,-105.85957 84.48408,-209.17443 112.98473,-308.41777c50.38508,15.77715 98.22546,33.08111 143.0122,51.9119c180.16484,76.84997 296.71215,177.62014 296.71215,257.52375c-0.50894,79.90361 -117.05625,181.18272 -297.22109,257.52375z"/>
   <circle stroke="null" id="svg_3" r="232.58571" cy="1250.25447" cx="1247.62142"/>
  </g>
</svg>